<?xml version="1.0" encoding="UTF-8" standalone="no"?>
<!DOCTYPE svg PUBLIC "-//W3C//DTD SVG 1.0//EN" "http://www.w3.org/TR/2001/REC-SVG-20010904/DTD/svg10.dtd">
<!-- Created with Inkscape (http://www.inkscape.org/) -->
<!-- DOCTYPE and viewBox fix by in[k]firmary (http://inkfirmary.48design.de) -->
<svg
   xmlns:svg="http://www.w3.org/2000/svg"
   xmlns="http://www.w3.org/2000/svg"
   version="1.0"
   width="100%"
   height="100%"
   id="svg2384"
   viewBox="0 0 800 161">
  <defs
     id="defs2386" />
  <g
     transform="matrix(2.9493556,0,0,-3.0437374,17.517485,157.40001)"
     id="content"
     xml:space="preserve"
     style="font-style:normal;font-variant:normal;font-weight:normal;font-stretch:normal;letter-spacing:normal;word-spacing:normal;text-anchor:start;fill:none;fill-opacity:1;stroke:#000000;stroke-width:0.45277312;stroke-linecap:butt;stroke-linejoin:miter;stroke-miterlimit:10.43299961;stroke-dasharray:none;stroke-dashoffset:0;stroke-opacity:1"><path
       d="M 19.875,4 L 19.875,150.09375 L 49.375,150.09375 L 49.375,80.09375 L 108.34375,80.09375 L 108.34375,150.09375 L 114.25,150.09375 L 114.25,10.09375 L 149.65625,10.09375 L 149.65625,150.09375 L 179.15625,150.09375 L 179.15625,4 L 108.34375,4 L 108.34375,74 L 49.375,74 L 49.375,4 L 19.875,4 z M 208.625,4 L 208.625,150.09375 L 214.53125,150.09375 L 240.5,150.09375 L 323.0625,4 L 291.21875,4 L 214.53125,139.65625 L 214.53125,10.09375 L 252.875,10.09375 L 252.875,4 L 208.625,4 z"
       transform="matrix(0.3390571,0,0,-0.3285435,-5.9394222,51.71132)"
       id="polyline4"
       style="fill:#000000;stroke:#000000;stroke-width:0" /><polyline
       style="fill:#ff8c00;stroke:#ff8c00;stroke-width:0"
       id="polyline10"
       points="86.8,2.4 114.8,50.4 125.6,50.4 97.6,2.4" /><path
       d="M 630.65625,4.71875 C 629.31944,4.7187747 628.27329,4.9407952 627.53125,5.40625 C 626.78921,5.8717506 626.26327,6.4697284 625.96875,7.21875 C 625.7535,7.7752052 625.65624,8.6363009 625.65625,9.78125 L 625.65625,11.59375 L 622.96875,11.59375 L 622.96875,13.84375 L 625.65625,13.84375 L 625.65625,28.65625 L 628.6875,28.65625 L 628.6875,13.84375 L 632.21875,13.84375 L 632.21875,11.59375 L 628.6875,11.59375 L 628.6875,10.03125 C 628.68748,9.0040084 628.89607,8.3120428 629.28125,7.9375 C 629.66643,7.5629983 630.321,7.3750214 631.25,7.375 C 631.81643,7.3750214 632.42808,7.4242635 633.0625,7.53125 L 633.5,5 C 632.45772,4.8074123 631.51724,4.7187747 630.65625,4.71875 z M 637.0625,4.96875 L 637.0625,8.25 L 640.25,8.25 L 640.25,4.96875 L 637.0625,4.96875 z M 643.40625,4.96875 L 643.40625,8.25 L 646.59375,8.25 L 646.59375,4.96875 L 643.40625,4.96875 z M 433.8125,5.125 L 433.8125,28.65625 L 437.09375,28.65625 L 437.09375,17.5625 L 450.0625,17.5625 L 450.0625,28.65625 L 453.34375,28.65625 L 453.34375,5.125 L 450.0625,5.125 L 450.0625,14.78125 L 437.09375,14.78125 L 437.09375,5.125 L 433.8125,5.125 z M 495.25,5.125 L 495.25,28.65625 L 498.28125,28.65625 L 498.28125,19.3125 C 498.28124,17.974931 498.47264,16.947257 498.8125,16.1875 C 499.15236,15.427768 499.70129,14.819091 500.5,14.375 C 501.29868,13.930938 502.15617,13.687515 503.0625,13.6875 C 504.27468,13.687515 505.21226,14.029426 505.875,14.6875 C 506.53773,15.345603 506.87497,16.399175 506.875,17.84375 L 506.875,28.65625 L 509.9375,28.65625 L 509.9375,17.84375 C 509.93748,16.174463 509.73732,14.908717 509.3125,14.03125 C 508.88765,13.153813 508.17309,12.466346 507.1875,11.96875 C 506.20187,11.471187 505.02429,11.218768 503.6875,11.21875 C 501.51234,11.218768 499.70869,12.000224 498.28125,13.5625 L 498.28125,5.125 L 495.25,5.125 z M 549.40625,5.125 L 549.40625,28.65625 L 552.46875,28.65625 L 552.46875,19.3125 C 552.46874,17.974931 552.62888,16.947257 552.96875,16.1875 C 553.30861,15.427768 553.88881,14.819091 554.6875,14.375 C 555.48618,13.930938 556.34369,13.687515 557.25,13.6875 C 558.46218,13.687515 559.39972,14.029426 560.0625,14.6875 C 560.72523,15.345603 561.06249,16.399175 561.0625,17.84375 L 561.0625,28.65625 L 564.09375,28.65625 L 564.09375,17.84375 C 564.09373,16.174463 563.89356,14.908717 563.46875,14.03125 C 563.0439,13.153813 562.32933,12.466346 561.34375,11.96875 C 560.35812,11.471187 559.21178,11.218768 557.875,11.21875 C 555.69984,11.218768 553.89621,12.000224 552.46875,13.5625 L 552.46875,5.125 L 549.40625,5.125 z M 588.09375,5.125 L 588.09375,28.65625 L 591.15625,28.65625 L 591.15625,5.125 L 588.09375,5.125 z M 465.78125,11.21875 C 463.54945,11.218768 461.67707,11.831092 460.125,13.09375 C 458.26706,14.613255 457.3125,16.968322 457.3125,20.125 C 457.3125,23.003478 458.09853,25.219811 459.65625,26.75 C 461.21397,28.280192 463.25491,29.03125 465.78125,29.03125 C 467.35596,29.03125 468.8251,28.695541 470.15625,28 C 471.48738,27.30446 472.49077,26.319828 473.1875,25.0625 C 473.88421,23.80518 474.21873,22.068637 474.21875,19.875 C 474.21873,17.16775 473.44969,15.066805 471.875,13.53125 C 470.30027,11.995725 468.26228,11.218768 465.78125,11.21875 z M 485.125,11.21875 C 483.57293,11.218768 482.13231,11.559826 480.8125,12.25 C 479.49268,12.940207 478.52076,13.963382 477.875,15.34375 C 477.22925,16.724144 476.90624,18.347 476.90625,20.1875 C 476.90625,23.033876 477.65516,25.225163 479.15625,26.75 C 480.65732,28.274842 482.62403,29.03125 485.09375,29.03125 C 487.06497,29.03125 488.73992,28.482516 490.09375,27.375 C 491.44754,26.267486 492.29645,24.739471 492.625,22.78125 L 489.625,22.40625 C 489.40974,23.850841 488.8981,24.929462 488.09375,25.625 C 487.28938,26.320544 486.26335,26.656252 485.0625,26.65625 C 483.56708,26.656252 482.36645,26.131715 481.4375,25.09375 C 480.50852,24.055792 480.03124,22.383694 480.03125,20.09375 C 480.03125,17.835926 480.53704,16.199575 481.5,15.15625 C 482.46295,14.112952 483.70927,13.593765 485.25,13.59375 C 486.26959,13.593765 487.12435,13.89093 487.84375,14.46875 C 488.56312,15.046598 489.06052,15.886295 489.34375,17.03125 L 492.34375,16.59375 C 491.99254,14.870961 491.18366,13.561321 489.9375,12.625 C 488.69131,11.688711 487.0849,11.218768 485.125,11.21875 z M 520.53125,11.21875 C 519.59094,11.218768 518.72756,11.332454 517.90625,11.5625 C 517.0849,11.79258 516.41329,12.074547 515.9375,12.40625 C 515.30308,12.834291 514.80566,13.352627 514.4375,14 C 514.06931,14.647403 513.90624,15.365267 513.90625,16.125 C 513.90625,16.959662 514.11503,17.716069 514.5625,18.40625 C 515.00999,19.096451 515.66459,19.640686 516.53125,20.03125 C 517.39791,20.421832 518.94438,20.902476 521.1875,21.4375 C 522.85284,21.83343 523.89333,22.149441 524.3125,22.40625 C 524.91292,22.780778 525.21877,23.284766 525.21875,23.9375 C 525.21874,24.665147 524.89849,25.303371 524.21875,25.84375 C 523.539,26.384135 522.49854,26.656252 521.09375,26.65625 C 519.70029,26.656252 518.58852,26.35994 517.8125,25.75 C 517.03647,25.140067 516.57617,24.238723 516.40625,23.09375 L 513.375,23.5625 C 513.71487,25.370911 514.52083,26.735997 515.75,27.65625 C 516.97918,28.576505 518.74864,29.03125 521.09375,29.03125 C 522.50985,29.03125 523.78465,28.809228 524.90625,28.34375 C 526.0278,27.878273 526.87397,27.194453 527.46875,26.34375 C 528.0635,25.493052 528.37498,24.588061 528.375,23.625 C 528.37498,22.640547 528.14338,21.819696 527.65625,21.15625 C 527.16909,20.492818 526.48034,20.004029 525.625,19.65625 C 524.76966,19.308489 523.25754,18.858242 521.09375,18.3125 C 519.59833,17.927288 518.71212,17.669517 518.40625,17.5625 C 517.87379,17.359199 517.46798,17.122831 517.21875,16.8125 C 516.96951,16.512894 516.84373,16.155785 516.84375,15.78125 C 516.84374,15.192728 517.14957,14.688741 517.75,14.25 C 518.35043,13.811289 519.34522,13.593765 520.75,13.59375 C 521.93953,13.593765 522.87985,13.851535 523.53125,14.34375 C 524.18265,14.835993 524.55157,15.497561 524.6875,16.375 L 527.6875,16 C 527.49489,14.897848 527.1348,14.001854 526.625,13.34375 C 526.11518,12.685677 525.35181,12.16649 524.28125,11.78125 C 523.21066,11.396043 521.94734,11.218768 520.53125,11.21875 z M 539.3125,11.21875 C 537.76043,11.218768 536.31983,11.559826 535,12.25 C 533.68018,12.940207 532.67697,13.963382 532.03125,15.34375 C 531.3855,16.724144 531.06248,18.347 531.0625,20.1875 C 531.0625,23.033876 531.81143,25.225163 533.3125,26.75 C 534.81358,28.274842 536.81155,29.03125 539.28125,29.03125 C 541.25247,29.03125 542.92744,28.482516 544.28125,27.375 C 545.63504,26.267486 546.45272,24.739471 546.78125,22.78125 L 543.78125,22.40625 C 543.56599,23.850841 543.05437,24.929462 542.25,25.625 C 541.44564,26.320544 540.45087,26.656252 539.25,26.65625 C 537.75458,26.656252 536.55394,26.131715 535.625,25.09375 C 534.69602,24.055792 534.21876,22.383694 534.21875,20.09375 C 534.21874,17.835926 534.69328,16.199575 535.65625,15.15625 C 536.6192,14.112952 537.86554,13.593765 539.40625,13.59375 C 540.42584,13.593765 541.31184,13.89093 542.03125,14.46875 C 542.75062,15.046598 543.24801,15.886295 543.53125,17.03125 L 546.5,16.59375 C 546.14879,14.870961 545.33992,13.561321 544.09375,12.625 C 542.84756,11.688711 541.27236,11.218768 539.3125,11.21875 z M 603.3125,11.21875 C 600.82013,11.218768 598.78216,12.010071 597.21875,13.59375 C 595.65536,15.177458 594.87498,17.413489 594.875,20.28125 C 594.875,23.052721 595.67234,25.183212 597.21875,26.71875 C 598.76514,28.254292 600.82909,29.03125 603.46875,29.03125 C 605.56459,29.03125 607.30811,28.556807 608.65625,27.59375 C 610.00437,26.630695 610.90774,25.275457 611.40625,23.53125 L 608.25,23.15625 C 607.78549,24.376127 607.16802,25.25607 606.375,25.8125 C 605.58198,26.368935 604.62156,26.656252 603.5,26.65625 C 601.99325,26.656252 600.72702,26.151411 599.71875,25.15625 C 598.71047,24.161095 598.14451,22.747617 598.03125,20.875 L 611.5,20.875 C 611.51131,20.532588 611.53124,20.264969 611.53125,20.09375 C 611.53123,17.279493 610.74817,15.082856 609.21875,13.53125 C 607.68934,11.979675 605.72551,11.218768 603.3125,11.21875 z M 660.59375,11.21875 C 659.88002,11.218768 659.21974,11.396044 658.625,11.78125 C 658.03023,12.166489 657.38988,12.978343 656.6875,14.1875 L 656.6875,11.59375 L 653.90625,11.59375 L 653.90625,28.65625 L 656.96875,28.65625 L 656.96875,19.71875 C 656.96873,18.498887 657.16012,17.371023 657.5,16.34375 C 657.72658,15.669623 658.09254,15.161136 658.625,14.78125 C 659.15746,14.401392 659.76911,14.187515 660.4375,14.1875 C 661.18519,14.187514 661.90852,14.395189 662.65625,14.8125 L 663.71875,12.15625 C 662.65381,11.53563 661.62468,11.218768 660.59375,11.21875 z M 568.71875,11.59375 L 568.71875,22.15625 C 568.71875,23.386829 568.78161,24.27662 568.90625,24.84375 C 569.08751,25.689103 569.39626,26.416818 569.84375,27 C 570.29124,27.583186 570.98292,28.052278 571.90625,28.4375 C 572.82955,28.822723 573.81009,29.03125 574.875,29.03125 C 577.28805,29.03125 579.22018,28.082365 580.625,26.15625 L 580.625,28.65625 L 583.34375,28.65625 L 583.34375,11.59375 L 580.28125,11.59375 L 580.28125,20.71875 C 580.28124,22.174043 580.11545,23.29741 579.78125,24.0625 C 579.44703,24.827599 578.86685,25.430926 578.0625,25.875 C 577.25814,26.319079 576.41765,26.531252 575.5,26.53125 C 574.58235,26.531252 573.8106,26.339628 573.1875,25.90625 C 572.5644,25.472877 572.16135,24.8535 571.96875,24.09375 C 571.84413,23.569424 571.78122,22.571295 571.78125,21.0625 L 571.78125,11.59375 L 568.71875,11.59375 z M 634.5,11.59375 L 634.5,22.15625 C 634.5,23.386829 634.56287,24.27662 634.6875,24.84375 C 634.86877,25.689103 635.20876,26.416818 635.65625,27 C 636.10374,27.583186 636.76417,28.052278 637.6875,28.4375 C 638.61081,28.822723 639.6226,29.03125 640.6875,29.03125 C 643.10054,29.03125 645.00143,28.082365 646.40625,26.15625 L 646.40625,28.65625 L 649.15625,28.65625 L 649.15625,11.59375 L 646.09375,11.59375 L 646.09375,20.71875 C 646.09373,22.174043 645.92795,23.29741 645.59375,24.0625 C 645.25954,24.827599 644.67935,25.430926 643.875,25.875 C 643.07063,26.319079 642.1989,26.531252 641.28125,26.53125 C 640.36362,26.531252 639.59186,26.339628 638.96875,25.90625 C 638.34565,25.472877 637.9426,24.8535 637.75,24.09375 C 637.62539,23.569424 637.56247,22.571295 637.5625,21.0625 L 637.5625,11.59375 L 634.5,11.59375 z M 465.78125,13.59375 C 467.28798,13.593765 468.54855,14.1639 469.5625,15.25 C 470.57642,16.336127 471.09373,17.923234 471.09375,20.03125 C 471.09373,22.26769 470.57077,23.939789 469.5625,25.03125 C 468.55422,26.122718 467.29932,26.656252 465.78125,26.65625 C 464.25184,26.656252 462.977,26.117366 461.96875,25.03125 C 460.96047,23.94514 460.46875,22.307936 460.46875,20.125 C 460.46875,17.94208 460.96046,16.299527 461.96875,15.21875 C 462.97702,14.138 464.25185,13.593765 465.78125,13.59375 z M 603.34375,13.59375 C 604.8958,13.593765 606.15069,14.137148 607.125,15.25 C 607.7594,15.966955 608.14532,17.066125 608.28125,18.5 L 598.21875,18.5 C 598.32071,17.012623 598.8552,15.825666 599.8125,14.9375 C 600.76979,14.049362 601.93898,13.593765 603.34375,13.59375 z M 769.0625,44.90625 C 767.72569,44.906275 766.71079,45.128296 765.96875,45.59375 C 765.22671,46.059251 764.70079,46.657227 764.40625,47.40625 C 764.191,47.962705 764.09374,48.823801 764.09375,49.96875 L 764.09375,51.78125 L 761.375,51.78125 L 761.375,54.03125 L 764.09375,54.03125 L 764.09375,68.8125 L 767.125,68.8125 L 767.125,54.03125 L 770.65625,54.03125 L 770.65625,51.78125 L 767.125,51.78125 L 767.125,50.21875 C 767.12498,49.191508 767.30232,48.468293 767.6875,48.09375 C 768.07268,47.719248 768.7585,47.531271 769.6875,47.53125 C 770.25394,47.531271 770.83433,47.580513 771.46875,47.6875 L 771.9375,45.1875 C 770.89524,44.994912 769.92349,44.906273 769.0625,44.90625 z M 431.84375,45.28125 L 431.84375,48.0625 L 440.03125,48.0625 L 440.03125,68.8125 L 443.34375,68.8125 L 443.34375,48.0625 L 451.59375,48.0625 L 451.59375,45.28125 L 431.84375,45.28125 z M 486.625,45.28125 L 486.625,68.8125 L 489.6875,68.8125 L 489.6875,59.5 C 489.68749,58.162431 489.84763,57.103506 490.1875,56.34375 C 490.52736,55.584018 491.10757,54.975339 491.90625,54.53125 C 492.70493,54.087188 493.56241,53.875014 494.46875,53.875 C 495.68093,53.875015 496.61851,54.216925 497.28125,54.875 C 497.94398,55.533103 498.28125,56.586674 498.28125,58.03125 L 498.28125,68.8125 L 501.34375,68.8125 L 501.34375,58.03125 C 501.34373,56.361963 501.11231,55.064966 500.6875,54.1875 C 500.26265,53.310063 499.54811,52.622597 498.5625,52.125 C 497.57687,51.627437 496.43054,51.406267 495.09375,51.40625 C 492.91859,51.406268 491.11493,52.187722 489.6875,53.75 L 489.6875,45.28125 L 486.625,45.28125 z M 525.40625,45.28125 L 525.40625,48.625 L 528.4375,48.625 L 528.4375,45.28125 L 525.40625,45.28125 z M 533.15625,45.28125 L 533.15625,68.8125 L 536.1875,68.8125 L 536.1875,62.0625 L 538.34375,60.09375 L 544.3125,68.8125 L 548.09375,68.8125 L 540.5,58.09375 L 547.40625,51.78125 L 543.4375,51.78125 L 536.1875,58.71875 L 536.1875,45.28125 L 533.15625,45.28125 z M 610.4375,45.28125 L 610.4375,53.75 C 609.90503,53.054474 609.19338,52.464643 608.34375,52.03125 C 607.49407,51.597892 606.52506,51.406267 605.4375,51.40625 C 603.95341,51.406268 602.60708,51.761672 601.40625,52.5 C 600.20538,53.23836 599.31917,54.301781 598.71875,55.6875 C 598.11832,57.073245 597.81248,58.61111 597.8125,60.3125 C 597.8125,62.056711 598.14977,63.594579 598.8125,64.9375 C 599.47524,66.280433 600.41849,67.344711 601.625,68.09375 C 602.83152,68.842795 604.15499,69.218747 605.59375,69.21875 C 607.8142,69.21875 609.48075,68.378204 610.625,66.6875 L 610.625,68.8125 L 613.46875,68.8125 L 613.46875,45.28125 L 610.4375,45.28125 z M 626.09375,45.28125 L 632.6875,68.8125 L 636.0625,68.8125 L 641.34375,50.90625 C 641.57031,50.146524 641.80192,49.205785 642.0625,48.125 C 642.1418,48.467441 642.40194,49.408181 642.84375,50.90625 L 648.09375,68.8125 L 651.28125,68.8125 L 658.125,45.28125 L 654.8125,45.28125 L 650.875,60.40625 C 650.36518,62.332371 649.97344,64.043868 649.65625,65.53125 C 649.25971,62.931001 648.61373,60.140884 647.71875,57.1875 L 644.15625,45.28125 L 640.15625,45.28125 L 635.4375,61.1875 C 635.3242,61.57273 634.94689,63.016608 634.3125,65.53125 C 634.01795,63.93686 633.6578,62.334552 633.25,60.71875 L 629.46875,45.28125 L 626.09375,45.28125 z M 660.78125,45.28125 L 660.78125,48.625 L 663.84375,48.625 L 663.84375,45.28125 L 660.78125,45.28125 z M 724.59375,45.28125 L 724.59375,68.8125 L 727.65625,68.8125 L 727.65625,59.5 C 727.65623,58.162431 727.84764,57.103506 728.1875,56.34375 C 728.52735,55.584018 729.07632,54.975339 729.875,54.53125 C 730.67368,54.087188 731.5312,53.875014 732.4375,53.875 C 733.64968,53.875015 734.58723,54.216925 735.25,54.875 C 735.91272,55.533103 736.25,56.586674 736.25,58.03125 L 736.25,68.8125 L 739.3125,68.8125 L 739.3125,58.03125 C 739.31248,56.361963 739.08107,55.064966 738.65625,54.1875 C 738.2314,53.310063 737.54809,52.622597 736.5625,52.125 C 735.57686,51.627437 734.39929,51.406267 733.0625,51.40625 C 730.88733,51.406268 729.08367,52.187722 727.65625,53.75 L 727.65625,45.28125 L 724.59375,45.28125 z M 683.75,45.8125 L 680.71875,47.5625 L 680.71875,51.78125 L 678.46875,51.78125 L 678.46875,54.03125 L 680.71875,54.03125 L 680.71875,63.84375 C 680.71873,65.577257 680.84449,66.709623 681.09375,67.25 C 681.34299,67.790383 681.7632,68.230778 682.375,68.5625 C 682.98676,68.89422 683.85853,69.062503 684.96875,69.0625 C 685.64848,69.0625 686.42026,68.952461 687.28125,68.78125 L 686.84375,66.25 C 686.28862,66.324907 685.83986,66.34375 685.5,66.34375 C 685.04682,66.343752 684.68109,66.29536 684.4375,66.15625 C 684.19392,66.017145 684.01383,65.829166 683.90625,65.59375 C 683.79861,65.358339 683.75002,64.823953 683.75,64 L 683.75,54.03125 L 686.84375,54.03125 L 686.84375,51.78125 L 683.75,51.78125 L 683.75,45.8125 z M 776.59375,45.8125 L 773.5625,47.5625 L 773.5625,51.78125 L 771.3125,51.78125 L 771.3125,54.03125 L 773.5625,54.03125 L 773.5625,63.84375 C 773.5625,65.577257 773.68825,66.709623 773.9375,67.25 C 774.18674,67.790383 774.60698,68.230778 775.21875,68.5625 C 775.83051,68.89422 776.70223,69.062503 777.8125,69.0625 C 778.49223,69.0625 779.26396,68.952461 780.125,68.78125 L 779.6875,66.25 C 779.13237,66.324907 778.68358,66.34375 778.34375,66.34375 C 777.89059,66.343752 777.52479,66.29536 777.28125,66.15625 C 777.03769,66.017145 776.88886,65.829166 776.78125,65.59375 C 776.67362,65.358339 776.59372,64.823953 776.59375,64 L 776.59375,54.03125 L 779.6875,54.03125 L 779.6875,51.78125 L 776.59375,51.78125 L 776.59375,45.8125 z M 457.28125,51.40625 C 454.78888,51.406268 452.75089,52.197572 451.1875,53.78125 C 449.62411,55.364958 448.84374,57.569738 448.84375,60.4375 C 448.84375,63.208971 449.60985,65.370711 451.15625,66.90625 C 452.70264,68.441792 454.79785,69.218747 457.4375,69.21875 C 459.53334,69.21875 461.24559,68.713057 462.59375,67.75 C 463.94187,66.786945 464.87652,65.431708 465.375,63.6875 L 462.21875,63.34375 C 461.75425,64.563627 461.10552,65.443573 460.3125,66 C 459.51946,66.556435 458.59029,66.843749 457.46875,66.84375 C 455.962,66.843752 454.69575,66.338915 453.6875,65.34375 C 452.67922,64.348595 452.11327,62.903868 452,61.03125 L 465.46875,61.03125 C 465.48006,60.688838 465.46874,60.45247 465.46875,60.28125 C 465.46873,57.466993 464.71689,55.270356 463.1875,53.71875 C 461.65808,52.167175 459.69431,51.406267 457.28125,51.40625 z M 476.53125,51.40625 C 474.97918,51.406268 473.53855,51.747327 472.21875,52.4375 C 470.89893,53.127707 469.89575,54.150882 469.25,55.53125 C 468.60425,56.911644 468.28126,58.534501 468.28125,60.375 C 468.28125,63.221376 469.03016,65.38141 470.53125,66.90625 C 472.03232,68.431092 474.0303,69.218747 476.5,69.21875 C 478.47122,69.21875 480.1462,68.638767 481.5,67.53125 C 482.85379,66.423736 483.67144,64.895721 484,62.9375 L 481,62.59375 C 480.78474,64.038341 480.27309,65.085709 479.46875,65.78125 C 478.66438,66.476794 477.6696,66.843749 476.46875,66.84375 C 474.97333,66.843752 473.77272,66.319215 472.84375,65.28125 C 471.91477,64.243292 471.43748,62.571193 471.4375,60.28125 C 471.4375,58.023426 471.91203,56.387075 472.875,55.34375 C 473.83795,54.300452 475.08427,53.781265 476.625,53.78125 C 477.64459,53.781265 478.5306,54.047179 479.25,54.625 C 479.96937,55.202848 480.46676,56.073796 480.75,57.21875 L 483.71875,56.78125 C 483.36754,55.058461 482.5899,53.717573 481.34375,52.78125 C 480.09756,51.844961 478.49115,51.406267 476.53125,51.40625 z M 514.5,51.40625 C 511.9963,51.406268 510.07546,52.314905 508.75,54.1875 L 508.75,51.78125 L 506,51.78125 L 506,68.8125 L 509.0625,68.8125 L 509.0625,59.5 C 509.06249,57.317081 509.52277,55.843658 510.46875,55.0625 C 511.41471,54.281368 512.54089,53.906266 513.84375,53.90625 C 514.65942,53.906265 515.3939,54.058495 516,54.40625 C 516.60608,54.754035 517.0121,55.229329 517.25,55.8125 C 517.48789,56.395697 517.625,57.291693 517.625,58.46875 L 517.625,68.8125 L 520.65625,68.8125 L 520.65625,58.34375 C 520.65623,57.006182 520.6133,56.066294 520.5,55.53125 C 520.31872,54.707315 519.98439,54.0055 519.53125,53.40625 C 519.07808,52.80703 518.41199,52.30669 517.5,51.9375 C 516.58801,51.568345 515.58759,51.406267 514.5,51.40625 z M 588.0625,51.40625 C 585.5588,51.406268 583.63797,52.314905 582.3125,54.1875 L 582.3125,51.78125 L 579.5625,51.78125 L 579.5625,68.8125 L 582.59375,68.8125 L 582.59375,59.5 C 582.59374,57.317081 583.08525,55.843658 584.03125,55.0625 C 584.97721,54.281368 586.1034,53.906266 587.40625,53.90625 C 588.22192,53.906265 588.92516,54.058495 589.53125,54.40625 C 590.13733,54.754035 590.57455,55.229329 590.8125,55.8125 C 591.05039,56.395697 591.15626,57.291693 591.15625,58.46875 L 591.15625,68.8125 L 594.21875,68.8125 L 594.21875,58.34375 C 594.21873,57.006182 594.1445,56.066294 594.03125,55.53125 C 593.84997,54.707315 593.5469,54.0055 593.09375,53.40625 C 592.64058,52.80703 591.94319,52.30669 591.03125,51.9375 C 590.11926,51.568345 589.15004,51.406267 588.0625,51.40625 z M 675.15625,51.40625 C 674.44251,51.406268 673.78226,51.583543 673.1875,51.96875 C 672.59273,52.353989 671.95237,53.165842 671.25,54.375 L 671.25,51.78125 L 668.5,51.78125 L 668.5,68.8125 L 671.5625,68.8125 L 671.5625,59.90625 C 671.5625,58.686387 671.72264,57.558522 672.0625,56.53125 C 672.28908,55.857123 672.65505,55.317387 673.1875,54.9375 C 673.71994,54.557642 674.33163,54.375015 675,54.375 C 675.74771,54.375014 676.50227,54.582689 677.25,55 L 678.3125,52.3125 C 677.24756,51.69188 676.18719,51.406267 675.15625,51.40625 z M 695.71875,51.40625 C 694.77844,51.406268 693.91507,51.519953 693.09375,51.75 C 692.2724,51.98008 691.63204,52.262047 691.15625,52.59375 C 690.52182,53.021791 690.02442,53.540127 689.65625,54.1875 C 689.28806,54.834903 689.09376,55.552767 689.09375,56.3125 C 689.09375,57.147162 689.30249,57.903568 689.75,58.59375 C 690.19749,59.283951 690.85209,59.828184 691.71875,60.21875 C 692.58542,60.609332 694.16314,61.058727 696.40625,61.59375 C 698.07158,61.98968 699.11209,62.33694 699.53125,62.59375 C 700.13168,62.968278 700.43746,63.472268 700.4375,64.125 C 700.43748,64.852647 700.086,65.490872 699.40625,66.03125 C 698.72651,66.571635 697.68604,66.843749 696.28125,66.84375 C 694.88778,66.843752 693.80728,66.516191 693.03125,65.90625 C 692.25521,65.296317 691.76368,64.426222 691.59375,63.28125 L 688.59375,63.75 C 688.93361,65.558411 689.70829,66.892248 690.9375,67.8125 C 692.16669,68.732755 693.93614,69.218747 696.28125,69.21875 C 697.69736,69.21875 698.97216,68.965478 700.09375,68.5 C 701.21531,68.034523 702.09273,67.381951 702.6875,66.53125 C 703.28224,65.680552 703.56249,64.775561 703.5625,63.8125 C 703.56248,62.828047 703.33089,62.007195 702.84375,61.34375 C 702.35659,60.680318 701.66785,60.160278 700.8125,59.8125 C 699.95716,59.464739 698.44505,59.045742 696.28125,58.5 C 694.78583,58.114788 693.89964,57.857019 693.59375,57.75 C 693.06129,57.546699 692.6555,57.279078 692.40625,56.96875 C 692.15701,56.669144 692.03124,56.343284 692.03125,55.96875 C 692.03123,55.380228 692.33707,54.876241 692.9375,54.4375 C 693.53793,53.998789 694.56397,53.781265 695.96875,53.78125 C 697.15828,53.781265 698.06736,54.007787 698.71875,54.5 C 699.37016,54.992243 699.77026,55.685062 699.90625,56.5625 L 702.875,56.1875 C 702.68239,55.085348 702.35351,54.189354 701.84375,53.53125 C 701.33393,52.873177 700.53932,52.353989 699.46875,51.96875 C 698.39816,51.583543 697.13484,51.406267 695.71875,51.40625 z M 714.5,51.40625 C 712.94793,51.406268 711.50734,51.747327 710.1875,52.4375 C 708.86769,53.127707 707.89573,54.150882 707.25,55.53125 C 706.60424,56.911644 706.28123,58.534501 706.28125,60.375 C 706.28123,63.221376 707.03019,65.38141 708.53125,66.90625 C 710.03233,68.431092 711.99906,69.218747 714.46875,69.21875 C 716.43998,69.21875 718.11495,68.638767 719.46875,67.53125 C 720.82255,66.423736 721.67142,64.895721 722,62.9375 L 718.96875,62.59375 C 718.7535,64.038341 718.24182,65.085709 717.4375,65.78125 C 716.63313,66.476794 715.63838,66.843749 714.4375,66.84375 C 712.94208,66.843752 711.74145,66.319215 710.8125,65.28125 C 709.88352,64.243292 709.40626,62.571193 709.40625,60.28125 C 709.40623,58.023426 709.8808,56.387075 710.84375,55.34375 C 711.80671,54.300452 713.08425,53.781265 714.625,53.78125 C 715.64459,53.781265 716.49935,54.047179 717.21875,54.625 C 717.93812,55.202848 718.43552,56.073796 718.71875,57.21875 L 721.6875,56.78125 C 721.33629,55.058461 720.55869,53.717573 719.3125,52.78125 C 718.06631,51.844961 716.45987,51.406267 714.5,51.40625 z M 751.59375,51.40625 C 750.04168,51.406268 748.67821,51.598744 747.5,52 C 746.32178,52.401291 745.43561,52.975072 744.8125,53.71875 C 744.18942,54.462459 743.74067,55.41584 743.46875,56.625 L 746.46875,57.03125 C 746.79728,55.822091 747.28333,54.976191 747.96875,54.5 C 748.65415,54.023836 749.71749,53.781264 751.15625,53.78125 C 752.69697,53.781265 753.87455,54.097276 754.65625,54.75 C 755.234,55.231542 755.53121,56.072942 755.53125,57.25 C 755.53123,57.357018 755.51132,57.604087 755.5,58 C 754.33311,58.385233 752.50098,58.721793 750.03125,59 C 748.81907,59.139118 747.91295,59.2877 747.3125,59.4375 C 746.49682,59.651522 745.77642,59.957684 745.125,60.375 C 744.47359,60.792333 743.93344,61.341066 743.53125,62.03125 C 743.12907,62.721447 742.93752,63.509105 742.9375,64.34375 C 742.9375,65.766938 743.46631,66.928848 744.53125,67.84375 C 745.59617,68.758655 747.14241,69.218747 749.125,69.21875 C 750.32584,69.21875 751.4208,69.030769 752.46875,68.65625 C 753.51667,68.281728 754.61707,67.628304 755.75,66.71875 C 755.84061,67.521299 756.05775,68.213263 756.375,68.8125 L 759.5625,68.8125 C 759.17729,68.159762 758.91153,67.492846 758.78125,66.78125 C 758.65095,66.06966 758.59375,64.373364 758.59375,61.6875 L 758.59375,57.8125 C 758.59373,56.528435 758.53943,55.648491 758.4375,55.15625 C 758.25623,54.364417 757.95316,53.706496 757.5,53.1875 C 757.04682,52.668535 756.33793,52.248688 755.375,51.90625 C 754.41202,51.563847 753.13448,51.406267 751.59375,51.40625 z M 525.40625,51.78125 L 525.40625,68.8125 L 528.4375,68.8125 L 528.4375,51.78125 L 525.40625,51.78125 z M 560.125,51.78125 L 560.125,62.34375 C 560.125,63.574329 560.18789,64.464117 560.3125,65.03125 C 560.49376,65.876603 560.80253,66.604318 561.25,67.1875 C 561.69749,67.770686 562.35795,68.239776 563.28125,68.625 C 564.20455,69.010223 565.21631,69.218747 566.28125,69.21875 C 568.6943,69.21875 570.5952,68.238616 572,66.3125 L 572,68.8125 L 574.75,68.8125 L 574.75,51.78125 L 571.6875,51.78125 L 571.6875,60.90625 C 571.68749,62.361543 571.52167,63.484909 571.1875,64.25 C 570.85328,65.015099 570.27306,65.618426 569.46875,66.0625 C 568.66439,66.506579 567.79262,66.718751 566.875,66.71875 C 565.95735,66.718752 565.21682,66.495876 564.59375,66.0625 C 563.97065,65.629127 563.53631,65.041003 563.34375,64.28125 C 563.21913,63.756924 563.15624,62.727546 563.15625,61.21875 L 563.15625,51.78125 L 560.125,51.78125 z M 660.78125,51.78125 L 660.78125,68.8125 L 663.84375,68.8125 L 663.84375,51.78125 L 660.78125,51.78125 z M 457.3125,53.78125 C 458.86455,53.781265 460.11945,54.324648 461.09375,55.4375 C 461.72815,56.154455 462.11404,57.222376 462.25,58.65625 L 452.15625,58.65625 C 452.25821,57.168873 452.79271,55.981916 453.75,55.09375 C 454.70729,54.205612 455.90771,53.781265 457.3125,53.78125 z M 605.75,53.78125 C 607.14344,53.781265 608.29835,54.3148 609.25,55.40625 C 610.20161,56.497728 610.68748,58.229772 610.6875,60.5625 C 610.68749,62.681233 610.2159,64.248642 609.28125,65.28125 C 608.3466,66.313864 607.21182,66.843749 605.875,66.84375 C 604.54951,66.843752 603.4118,66.299515 602.4375,65.21875 C 601.46321,64.13799 600.96876,62.495438 600.96875,60.3125 C 600.96874,58.054676 601.43177,56.392424 602.34375,55.34375 C 603.25572,54.295102 604.39052,53.781264 605.75,53.78125 z M 755.5,60.28125 L 755.5,61.3125 C 755.49998,62.585882 755.32852,63.566017 755,64.21875 C 754.56948,65.064104 753.91763,65.731875 753,66.21875 C 752.08235,66.705631 751.02193,66.937505 749.84375,66.9375 C 748.6542,66.937502 747.74239,66.70113 747.125,66.1875 C 746.50757,65.673872 746.21874,65.020448 746.21875,64.25 C 746.21875,63.747075 746.34179,63.286982 746.625,62.875 C 746.90822,62.463032 747.32262,62.15152 747.84375,61.9375 C 748.36488,61.723494 749.24249,61.514969 750.5,61.34375 C 752.72045,61.04414 754.38976,60.709285 755.5,60.28125 z M 433.6875,85.78125 L 433.6875,109.3125 L 442.6875,109.3125 C 444.19423,109.3125 445.52626,109.17377 446.6875,108.90625 C 447.8487,108.63873 448.83489,108.23773 449.65625,107.71875 C 450.47758,107.19977 451.24642,106.49796 451.9375,105.59375 C 452.62854,104.68955 453.18315,103.53664 453.625,102.15625 C 454.0668,100.77588 454.31247,99.193267 454.3125,97.40625 C 454.31248,95.308939 453.96387,93.444362 453.3125,91.8125 C 452.66107,90.180671 451.68913,88.829934 450.375,87.78125 C 449.36671,86.968024 448.14617,86.43534 446.71875,86.125 C 445.69913,85.900309 444.21848,85.781276 442.28125,85.78125 L 433.6875,85.78125 z M 518.375,85.78125 L 518.375,94.21875 C 517.84253,93.523224 517.1309,92.964646 516.28125,92.53125 C 515.43157,92.097892 514.46258,91.87502 513.375,91.875 C 511.89091,91.875018 510.54461,92.23042 509.34375,92.96875 C 508.14288,93.70711 507.25667,94.770533 506.65625,96.15625 C 506.05582,97.541995 505.75,99.111112 505.75,100.8125 C 505.75,102.55671 506.08727,104.09457 506.75,105.4375 C 507.41274,106.78043 508.35595,107.81346 509.5625,108.5625 C 510.76902,109.31154 512.09245,109.6875 513.53125,109.6875 C 515.75171,109.6875 517.41828,108.84695 518.5625,107.15625 L 518.5625,109.3125 L 521.40625,109.3125 L 521.40625,85.78125 L 518.375,85.78125 z M 437,88.5625 L 442.21875,88.5625 C 444.17864,88.562521 445.61633,88.710253 446.5,89.03125 C 447.72351,89.480696 448.76964,90.365992 449.625,91.6875 C 450.48031,93.009044 450.90623,94.913864 450.90625,97.375 C 450.90623,99.151316 450.68614,100.65963 450.25,101.90625 C 449.81382,103.15288 449.18791,104.13666 448.40625,104.875 C 447.85112,105.39934 447.12213,105.80483 446.1875,106.09375 C 445.25285,106.38267 443.95517,106.53125 442.3125,106.53125 L 437,106.53125 L 437,88.5625 z M 465.09375,91.875 C 464.38002,91.875018 463.71977,92.052295 463.125,92.4375 C 462.53023,92.822739 461.88989,93.634594 461.1875,94.84375 L 461.1875,92.25 L 458.4375,92.25 L 458.4375,109.3125 L 461.5,109.3125 L 461.5,100.375 C 461.49999,99.155137 461.66014,98.027275 462,97 C 462.22657,96.325873 462.59252,95.817385 463.125,95.4375 C 463.65745,95.057642 464.26907,94.843764 464.9375,94.84375 C 465.6852,94.843764 466.43979,95.082692 467.1875,95.5 L 468.21875,92.8125 C 467.15382,92.19188 466.12467,91.87502 465.09375,91.875 z M 477.5,91.875 C 475.00764,91.875018 472.96963,92.666324 471.40625,94.25 C 469.84286,95.833708 469.06251,98.069741 469.0625,100.9375 C 469.0625,103.70897 469.82859,105.83946 471.375,107.375 C 472.92139,108.91054 475.01662,109.6875 477.65625,109.6875 C 479.75209,109.6875 481.4956,109.21306 482.84375,108.25 C 484.19187,107.28694 485.09526,105.93171 485.59375,104.1875 L 482.4375,103.8125 C 481.973,105.03238 481.35551,105.91232 480.5625,106.46875 C 479.76946,107.02519 478.80906,107.3125 477.6875,107.3125 C 476.18075,107.3125 474.91452,106.80766 473.90625,105.8125 C 472.89797,104.81734 472.33204,103.40387 472.21875,101.53125 L 485.6875,101.53125 C 485.69881,101.18884 485.68748,100.92122 485.6875,100.75 C 485.68748,97.935743 484.93563,95.739105 483.40625,94.1875 C 481.87683,92.635925 479.91305,91.87502 477.5,91.875 z M 495.375,91.875 C 494.43469,91.875018 493.57135,91.988701 492.75,92.21875 C 491.92865,92.44883 491.28832,92.730796 490.8125,93.0625 C 490.17808,93.490541 489.64945,94.040125 489.28125,94.6875 C 488.91306,95.334903 488.75,96.021515 488.75,96.78125 C 488.75,97.615912 488.95876,98.372316 489.40625,99.0625 C 489.85374,99.752701 490.50835,100.29693 491.375,100.6875 C 492.24166,101.07808 493.81936,101.55873 496.0625,102.09375 C 497.72784,102.48968 498.76831,102.80569 499.1875,103.0625 C 499.78792,103.43703 500.09374,103.94102 500.09375,104.59375 C 500.09374,105.3214 499.74222,105.95962 499.0625,106.5 C 498.38276,107.04038 497.34226,107.3125 495.9375,107.3125 C 494.54404,107.3125 493.46353,107.01619 492.6875,106.40625 C 491.91147,105.79632 491.41993,104.92622 491.25,103.78125 L 488.21875,104.21875 C 488.55862,106.02716 489.36456,107.39225 490.59375,108.3125 C 491.82293,109.23276 493.59242,109.6875 495.9375,109.6875 C 497.3536,109.6875 498.62843,109.46548 499.75,109 C 500.87155,108.53452 501.74898,107.88195 502.34375,107.03125 C 502.9385,106.18055 503.21874,105.24431 503.21875,104.28125 C 503.21873,103.2968 502.98714,102.47594 502.5,101.8125 C 502.01284,101.14907 501.32407,100.66028 500.46875,100.3125 C 499.61341,99.964739 498.10132,99.51449 495.9375,98.96875 C 494.44208,98.583538 493.55588,98.325771 493.25,98.21875 C 492.71754,98.015449 492.31174,97.779077 492.0625,97.46875 C 491.81326,97.169144 491.68749,96.812036 491.6875,96.4375 C 491.68749,95.848978 491.99332,95.344993 492.59375,94.90625 C 493.19418,94.467539 494.18895,94.250017 495.59375,94.25 C 496.78328,94.250015 497.72358,94.507782 498.375,95 C 499.0264,95.492243 499.42655,96.15381 499.5625,97.03125 L 502.53125,96.65625 C 502.33864,95.554098 502.00978,94.689352 501.5,94.03125 C 500.99018,93.373177 500.19556,92.822741 499.125,92.4375 C 498.05441,92.052293 496.7911,91.87502 495.375,91.875 z M 533.625,91.875 C 531.13264,91.875018 529.12588,92.666324 527.5625,94.25 C 525.99911,95.833708 525.21875,98.069741 525.21875,100.9375 C 525.21875,103.70897 525.98487,105.83946 527.53125,107.375 C 529.07764,108.91054 531.17287,109.6875 533.8125,109.6875 C 535.90834,109.6875 537.62057,109.21306 538.96875,108.25 C 540.31687,107.28694 541.2515,105.93171 541.75,104.1875 L 538.59375,103.8125 C 538.12925,105.03238 537.48053,105.91232 536.6875,106.46875 C 535.89446,107.02519 534.93402,107.3125 533.8125,107.3125 C 532.30575,107.3125 531.07074,106.80766 530.0625,105.8125 C 529.05422,104.81734 528.48829,103.40387 528.375,101.53125 L 541.84375,101.53125 C 541.85506,101.18884 541.84376,100.92122 541.84375,100.75 C 541.84373,97.935743 541.09187,95.739105 539.5625,94.1875 C 538.03308,92.635925 536.03804,91.87502 533.625,91.875 z M 554.09375,91.875 C 551.59005,91.875018 549.66922,92.814903 548.34375,94.6875 L 548.34375,92.25 L 545.59375,92.25 L 545.59375,109.3125 L 548.65625,109.3125 L 548.65625,100 C 548.65624,97.817081 549.14775,96.343657 550.09375,95.5625 C 551.03971,94.781368 552.1659,94.375014 553.46875,94.375 C 554.28442,94.375015 554.98766,94.558497 555.59375,94.90625 C 556.19983,95.254035 556.6058,95.698077 556.84375,96.28125 C 557.08164,96.864447 557.21876,97.760441 557.21875,98.9375 L 557.21875,109.3125 L 560.28125,109.3125 L 560.28125,98.8125 C 560.28123,97.474932 560.207,96.535043 560.09375,96 C 559.91247,95.176065 559.6094,94.474252 559.15625,93.875 C 558.70308,93.27578 558.00569,92.806692 557.09375,92.4375 C 556.18176,92.068345 555.18129,91.87502 554.09375,91.875 z M 477.53125,94.25 C 479.0833,94.250015 480.33819,94.793396 481.3125,95.90625 C 481.9469,96.623205 482.33278,97.722375 482.46875,99.15625 L 472.40625,99.15625 C 472.50821,97.668873 473.0427,96.481918 474,95.59375 C 474.95729,94.705612 476.12645,94.250017 477.53125,94.25 z M 513.6875,94.25 C 515.08094,94.250015 516.23587,94.814799 517.1875,95.90625 C 518.13912,96.997728 518.62501,98.698521 518.625,101.03125 C 518.62499,103.14998 518.15336,104.71739 517.21875,105.75 C 516.2841,106.78261 515.14929,107.3125 513.8125,107.3125 C 512.48701,107.3125 511.31804,106.76827 510.34375,105.6875 C 509.36946,104.60674 508.90625,102.99544 508.90625,100.8125 C 508.90625,98.554676 509.36926,96.892422 510.28125,95.84375 C 511.19322,94.795102 512.32805,94.250016 513.6875,94.25 z M 533.6875,94.25 C 535.23955,94.250015 536.49447,94.793396 537.46875,95.90625 C 538.10315,96.623205 538.48902,97.722375 538.625,99.15625 L 528.53125,99.15625 C 528.63321,97.668873 529.16773,96.481918 530.125,95.59375 C 531.08229,94.705612 532.28269,94.250017 533.6875,94.25 z M 572.65625,126.15625 C 571.65931,126.15627 570.8659,126.3783 570.3125,126.84375 C 569.75911,127.30925 569.3759,127.93848 569.15625,128.6875 C 568.99572,129.24396 568.93748,130.0738 568.9375,131.21875 L 568.9375,133.03125 L 566.90625,133.03125 L 566.90625,135.28125 L 568.9375,135.28125 L 568.9375,150.09375 L 571.1875,150.09375 L 571.1875,135.28125 L 573.8125,135.28125 L 573.8125,133.03125 L 571.1875,133.03125 L 571.1875,131.46875 C 571.18749,130.44151 571.33773,129.74955 571.625,129.375 C 571.91225,129.0005 572.40098,128.81253 573.09375,128.8125 C 573.51618,128.81252 573.96435,128.86176 574.4375,128.96875 L 574.78125,126.4375 C 574.00397,126.24491 573.29836,126.15627 572.65625,126.15625 z M 683.375,126.15625 C 682.1246,126.15627 680.95977,126.43374 679.9375,126.96875 C 678.91521,127.50381 678.15726,128.27991 677.625,129.3125 C 677.09273,130.34513 676.8125,131.4685 676.8125,132.65625 C 676.8125,133.73703 677.03365,134.69041 677.46875,135.5625 C 677.90386,136.43462 678.58164,137.16148 679.46875,137.75 C 680.15309,138.21014 681.32465,138.69978 683.03125,139.21875 C 684.73788,139.73774 685.84528,140.12889 686.34375,140.375 C 687.12102,140.74953 687.69329,141.23018 688.03125,141.78125 C 688.36918,142.33234 688.53126,142.94917 688.53125,143.6875 C 688.53124,144.41515 688.35058,145.10346 688,145.71875 C 687.64936,146.33404 687.12436,146.80313 686.40625,147.15625 C 685.68809,147.50937 684.84406,147.6875 683.90625,147.6875 C 682.85016,147.6875 681.90733,147.46548 681.0625,147 C 680.21762,146.53453 679.58878,145.91066 679.1875,145.15625 C 678.78618,144.40186 678.5473,143.45832 678.4375,142.28125 L 676.125,142.53125 C 676.15879,144.10425 676.47867,145.50338 677.125,146.75 C 677.77133,147.99663 678.67614,148.94187 679.8125,149.5625 C 680.94883,150.18314 682.34996,150.50001 684.03125,150.5 C 685.35768,150.5 686.56468,150.17779 687.625,149.5625 C 688.6853,148.94721 689.4964,148.10752 690.0625,147 C 690.62854,145.89249 690.90624,144.68947 690.90625,143.4375 C 690.90624,142.17483 690.64037,141.06217 690.125,140.09375 C 689.60961,139.12535 688.80019,138.31885 687.71875,137.6875 C 686.97525,137.25949 685.6231,136.75999 683.625,136.1875 C 681.62688,135.61503 680.37935,135.077 679.90625,134.53125 C 679.42467,133.98553 679.18747,133.28287 679.1875,132.4375 C 679.1875,131.46376 679.53865,130.6277 680.21875,129.9375 C 680.89886,129.24733 681.98175,128.90627 683.46875,128.90625 C 684.89656,128.90627 685.95669,129.27152 686.6875,130.03125 C 687.4183,130.79102 687.87326,131.91888 688,133.40625 L 690.34375,133.1875 C 690.3015,131.80714 690.00358,130.56023 689.4375,129.46875 C 688.87142,128.37731 688.05187,127.56181 687,127 C 685.94814,126.43824 684.75216,126.15627 683.375,126.15625 z M 433.0625,126.5625 L 433.0625,140.15625 C 433.0625,142.64951 433.30811,144.62327 433.78125,146.0625 C 434.25437,147.50174 435.01822,148.58401 436.125,149.34375 C 437.23177,150.1035 438.66581,150.50001 440.40625,150.5 C 442.19736,150.5 443.64745,150.05961 444.75,149.1875 C 445.85254,148.3154 446.60879,147.17234 447.03125,145.78125 C 447.45367,144.39017 447.65623,142.5211 447.65625,140.15625 L 447.65625,126.5625 L 445.21875,126.5625 L 445.21875,140.125 C 445.21874,143.07838 444.83132,145.08705 444.0625,146.125 C 443.29366,147.16296 441.99551,147.68751 440.1875,147.6875 C 439.13141,147.6875 438.23079,147.43059 437.5,146.90625 C 436.76918,146.38192 436.26867,145.62466 435.96875,144.65625 C 435.66882,143.68785 435.53124,142.16883 435.53125,140.125 L 435.53125,126.5625 L 433.0625,126.5625 z M 465.9375,126.5625 L 465.9375,129.875 L 468.21875,129.875 L 468.21875,126.5625 L 465.9375,126.5625 z M 520.78125,126.5625 L 520.78125,129.875 L 523.0625,129.875 L 523.0625,126.5625 L 520.78125,126.5625 z M 588.15625,126.5625 L 581.03125,150.09375 L 583.625,150.09375 L 585.6875,142.96875 L 593.4375,142.96875 L 595.625,150.09375 L 598.40625,150.09375 L 590.8125,126.5625 L 588.15625,126.5625 z M 628.96875,126.5625 L 628.96875,150.09375 L 631.25,150.09375 L 631.25,126.5625 L 628.96875,126.5625 z M 634.8125,126.5625 L 634.8125,129.875 L 637.09375,129.875 L 637.09375,126.5625 L 634.8125,126.5625 z M 663.59375,126.5625 L 663.59375,135 C 663.19665,134.30447 662.66489,133.74589 662.03125,133.3125 C 661.3976,132.87914 660.6861,132.65627 659.875,132.65625 C 658.76822,132.65627 657.77056,133.04293 656.875,133.78125 C 655.97943,134.51961 655.32278,135.55178 654.875,136.9375 C 654.42722,138.32324 654.18748,139.89236 654.1875,141.59375 C 654.1875,143.33796 654.44327,144.87582 654.9375,146.21875 C 655.43174,147.56168 656.13145,148.59471 657.03125,149.34375 C 657.93103,150.09279 658.89574,150.46874 659.96875,150.46875 C 661.62468,150.46875 662.89668,149.6282 663.75,147.9375 L 663.75,150.09375 L 665.875,150.09375 L 665.875,126.5625 L 663.59375,126.5625 z M 707,126.5625 L 707,129.875 L 709.28125,129.875 L 709.28125,126.5625 L 707,126.5625 z M 529.25,127.09375 L 526.96875,128.8125 L 526.96875,133.03125 L 525.3125,133.03125 L 525.3125,135.28125 L 526.96875,135.28125 L 526.96875,145.09375 C 526.96875,146.82726 527.06413,147.95962 527.25,148.5 C 527.43587,149.04038 527.76253,149.48078 528.21875,149.8125 C 528.67497,150.14422 529.32826,150.31251 530.15625,150.3125 C 530.66316,150.3125 531.2329,150.23371 531.875,150.0625 L 531.53125,147.5 C 531.11726,147.57491 530.78473,147.625 530.53125,147.625 C 530.1933,147.625 529.93163,147.54536 529.75,147.40625 C 529.56835,147.26714 529.45527,147.07916 529.375,146.84375 C 529.29473,146.60834 529.24997,146.07395 529.25,145.25 L 529.25,135.28125 L 531.53125,135.28125 L 531.53125,133.03125 L 529.25,133.03125 L 529.25,127.09375 z M 589.4375,129.03125 C 589.72475,130.30465 590.15855,131.92664 590.75,133.90625 L 592.6875,140.4375 L 586.375,140.4375 L 588.4375,133.53125 C 588.86837,132.04388 589.20096,130.54006 589.4375,129.03125 z M 457.8125,132.65625 C 455.94534,132.65627 454.51973,133.59616 453.53125,135.46875 L 453.53125,133.03125 L 451.46875,133.03125 L 451.46875,150.09375 L 453.75,150.09375 L 453.75,140.78125 C 453.75,138.59833 454.10702,137.12491 454.8125,136.34375 C 455.51796,135.56262 456.37216,135.15627 457.34375,135.15625 C 457.95205,135.15626 458.48548,135.33975 458.9375,135.6875 C 459.38949,136.03528 459.69758,136.51058 459.875,137.09375 C 460.05241,137.67695 460.12499,138.54169 460.125,139.71875 L 460.125,150.09375 L 462.40625,150.09375 L 462.40625,139.625 C 462.40624,138.28743 462.36572,137.34755 462.28125,136.8125 C 462.14606,135.98856 461.93167,135.2555 461.59375,134.65625 C 461.25579,134.05703 460.7426,133.58794 460.0625,133.21875 C 459.38237,132.8496 458.62355,132.65627 457.8125,132.65625 z M 490.21875,132.65625 C 488.36004,132.65627 486.8534,133.44757 485.6875,135.03125 C 484.52158,136.61496 483.93751,138.85098 483.9375,141.71875 C 483.9375,144.49022 484.50299,146.65196 485.65625,148.1875 C 486.80949,149.72304 488.37519,150.46874 490.34375,150.46875 C 491.90675,150.46875 493.18208,149.99431 494.1875,149.03125 C 495.19288,148.06819 495.87826,146.71297 496.25,144.96875 L 493.90625,144.59375 C 493.55984,145.81363 493.09141,146.72483 492.5,147.28125 C 491.90858,147.83769 491.18016,148.09375 490.34375,148.09375 C 489.22007,148.09375 488.28318,147.58891 487.53125,146.59375 C 486.77931,145.59859 486.36575,144.18511 486.28125,142.3125 L 496.3125,142.3125 C 496.32094,141.97009 496.34374,141.70246 496.34375,141.53125 C 496.34374,138.71699 495.76555,136.55161 494.625,135 C 493.48442,133.44842 492.01831,132.65627 490.21875,132.65625 z M 504.0625,132.65625 C 503.53023,132.65627 503.06855,132.8648 502.625,133.25 C 502.18144,133.63524 501.68005,134.41584 501.15625,135.625 L 501.15625,133.03125 L 499.09375,133.03125 L 499.09375,150.09375 L 501.375,150.09375 L 501.375,141.15625 C 501.375,139.93639 501.52777,138.80853 501.78125,137.78125 C 501.95022,137.10712 502.22789,136.59863 502.625,136.21875 C 503.02208,135.83889 503.47028,135.65626 503.96875,135.65625 C 504.52636,135.65626 505.06737,135.86394 505.625,136.28125 L 506.40625,133.59375 C 505.61207,132.97313 504.83131,132.65627 504.0625,132.65625 z M 512.21875,132.65625 C 511.5175,132.65627 510.86253,132.76996 510.25,133 C 509.63747,133.23008 509.16734,133.51205 508.8125,133.84375 C 508.33937,134.27179 507.96207,134.82138 507.6875,135.46875 C 507.41292,136.11615 507.28126,136.80277 507.28125,137.5625 C 507.28125,138.39716 507.44751,139.15358 507.78125,139.84375 C 508.11497,140.53395 508.60367,141.07818 509.25,141.46875 C 509.89632,141.85933 511.04591,142.33997 512.71875,142.875 C 513.9607,143.27093 514.74988,143.58695 515.0625,143.84375 C 515.51027,144.21828 515.71871,144.72227 515.71875,145.375 C 515.71874,146.10265 515.47569,146.74088 514.96875,147.28125 C 514.46182,147.82163 513.67261,148.09375 512.625,148.09375 C 511.58581,148.09375 510.79749,147.79744 510.21875,147.1875 C 509.64001,146.57757 509.28298,145.70747 509.15625,144.5625 L 506.875,145 C 507.12846,146.80841 507.73957,148.17349 508.65625,149.09375 C 509.57293,150.01401 510.90739,150.46874 512.65625,150.46875 C 513.71233,150.46875 514.63235,150.24673 515.46875,149.78125 C 516.30516,149.31577 516.96269,148.6632 517.40625,147.8125 C 517.84979,146.9618 518.06248,146.05681 518.0625,145.09375 C 518.06249,144.1093 517.89451,143.28844 517.53125,142.625 C 517.16795,141.96157 516.66911,141.44153 516.03125,141.09375 C 515.39337,140.74599 514.26996,140.29574 512.65625,139.75 C 511.54102,139.36479 510.8531,139.10701 510.625,139 C 510.22791,138.7967 509.93587,138.56033 509.75,138.25 C 509.56413,137.95039 509.46875,137.59329 509.46875,137.21875 C 509.46875,136.63023 509.70848,136.12624 510.15625,135.6875 C 510.60403,135.24879 511.32733,135.03126 512.375,135.03125 C 513.2621,135.03126 513.95171,135.28903 514.4375,135.78125 C 514.92329,136.27349 515.24235,136.93506 515.34375,137.8125 L 517.5625,137.4375 C 517.41886,136.33535 517.16144,135.4706 516.78125,134.8125 C 516.40105,134.15443 515.7984,133.63524 515,133.25 C 514.20159,132.86479 513.27485,132.65627 512.21875,132.65625 z M 559.40625,132.65625 C 557.74186,132.65627 556.31374,133.29985 555.15625,134.5625 C 553.77067,136.082 553.09377,138.40583 553.09375,141.5625 C 553.09375,144.44098 553.65082,146.65731 554.8125,148.1875 C 555.97419,149.71769 557.52222,150.46874 559.40625,150.46875 C 560.58061,150.46875 561.6635,150.13304 562.65625,149.4375 C 563.64896,148.74196 564.38666,147.75733 564.90625,146.5 C 565.42583,145.24268 565.68748,143.50613 565.6875,141.3125 C 565.68749,138.60525 565.11183,136.50431 563.9375,134.96875 C 562.76312,133.43323 561.25653,132.65627 559.40625,132.65625 z M 606.09375,132.65625 C 605.21508,132.65627 604.46048,132.87914 603.84375,133.3125 C 603.227,133.74589 602.6775,134.38326 602.1875,135.25 L 602.1875,133.03125 L 600.125,133.03125 L 600.125,156.625 L 602.40625,156.625 L 602.40625,148.3125 C 602.79488,148.93314 603.27091,149.46837 603.875,149.875 C 604.47907,150.28162 605.1771,150.46874 605.9375,150.46875 C 606.97667,150.46875 607.96423,150.1187 608.90625,149.375 C 609.84826,148.63131 610.56824,147.55269 611.0625,146.15625 C 611.55674,144.75982 611.81247,143.18171 611.8125,141.4375 C 611.81249,139.81101 611.57276,138.30184 611.125,136.9375 C 610.67721,135.57318 610.00367,134.53031 609.125,133.78125 C 608.24633,133.03222 607.24277,132.65627 606.09375,132.65625 z M 620.53125,132.65625 C 619.65258,132.65627 618.92926,132.87914 618.3125,133.3125 C 617.69573,133.74589 617.11502,134.38326 616.625,135.25 L 616.625,133.03125 L 614.5625,133.03125 L 614.5625,156.625 L 616.84375,156.625 L 616.84375,148.3125 C 617.23239,148.93314 617.73968,149.46837 618.34375,149.875 C 618.94782,150.28162 619.61464,150.46874 620.375,150.46875 C 621.41417,150.46875 622.40169,150.1187 623.34375,149.375 C 624.28576,148.63131 625.00578,147.55269 625.5,146.15625 C 625.99424,144.75982 626.24999,143.18171 626.25,141.4375 C 626.24999,139.81101 626.01024,138.30184 625.5625,136.9375 C 625.1147,135.57318 624.4724,134.53031 623.59375,133.78125 C 622.71508,133.03222 621.68023,132.65627 620.53125,132.65625 z M 646.09375,132.65625 C 644.23504,132.65627 642.7284,133.44757 641.5625,135.03125 C 640.39658,136.61496 639.81251,138.85098 639.8125,141.71875 C 639.8125,144.49022 640.37803,146.65196 641.53125,148.1875 C 642.68449,149.72304 644.25023,150.46874 646.21875,150.46875 C 647.78175,150.46875 649.05711,149.99431 650.0625,149.03125 C 651.06788,148.06819 651.75323,146.71297 652.125,144.96875 L 649.78125,144.59375 C 649.43484,145.81363 648.96642,146.72483 648.375,147.28125 C 647.78359,147.83769 647.05516,148.09375 646.21875,148.09375 C 645.09507,148.09375 644.15818,147.58891 643.40625,146.59375 C 642.6543,145.59859 642.24075,144.18511 642.15625,142.3125 L 652.1875,142.3125 C 652.19594,141.97009 652.21871,141.70246 652.21875,141.53125 C 652.21874,138.71699 651.64055,136.55161 650.5,135 C 649.35942,133.44842 647.8933,132.65627 646.09375,132.65625 z M 699.4375,132.65625 C 698.28003,132.65627 697.203,132.99732 696.21875,133.6875 C 695.23448,134.37771 694.51284,135.43214 694.03125,136.8125 C 693.54967,138.19289 693.31249,139.7845 693.3125,141.625 C 693.31249,144.47138 693.84928,146.66266 694.96875,148.1875 C 696.0882,149.71234 697.56447,150.46874 699.40625,150.46875 C 700.87632,150.46875 702.11539,149.92002 703.125,148.8125 C 704.13461,147.70499 704.78623,146.17698 705.03125,144.21875 L 702.78125,143.84375 C 702.62072,145.28834 702.22482,146.36696 701.625,147.0625 C 701.02513,147.75804 700.30182,148.09375 699.40625,148.09375 C 698.29102,148.09375 697.38026,147.56922 696.6875,146.53125 C 695.9947,145.49329 695.65621,143.85245 695.65625,141.5625 C 695.65624,139.30468 696.00064,137.63707 696.71875,136.59375 C 697.43689,135.55045 698.38221,135.03126 699.53125,135.03125 C 700.29162,135.03126 700.93222,135.32843 701.46875,135.90625 C 702.00523,136.4841 702.38254,137.35504 702.59375,138.5 L 704.8125,138.0625 C 704.55058,136.33971 703.96058,134.99882 703.03125,134.0625 C 702.10189,133.12621 700.89912,132.65627 699.4375,132.65625 z M 718.28125,132.65625 C 716.42254,132.65627 714.91589,133.44757 713.75,135.03125 C 712.58408,136.61496 712,138.85098 712,141.71875 C 712,144.49022 712.56552,146.65196 713.71875,148.1875 C 714.87199,149.72304 716.43772,150.46874 718.40625,150.46875 C 719.96925,150.46875 721.24461,149.99431 722.25,149.03125 C 723.25538,148.06819 723.94079,146.71297 724.3125,144.96875 L 721.96875,144.59375 C 721.62234,145.81363 721.15391,146.72483 720.5625,147.28125 C 719.97109,147.83769 719.24265,148.09375 718.40625,148.09375 C 717.28257,148.09375 716.34568,147.58891 715.59375,146.59375 C 714.8418,145.59859 714.42824,144.18511 714.34375,142.3125 L 724.375,142.3125 C 724.38344,141.97009 724.40626,141.70246 724.40625,141.53125 C 724.40624,138.71699 723.82805,136.55161 722.6875,135 C 721.54692,133.44842 720.0808,132.65627 718.28125,132.65625 z M 733.53125,132.65625 C 731.6641,132.65627 730.23852,133.59616 729.25,135.46875 L 729.25,133.03125 L 727.1875,133.03125 L 727.1875,150.09375 L 729.46875,150.09375 L 729.46875,140.78125 C 729.46875,138.59833 729.8258,137.12491 730.53125,136.34375 C 731.23671,135.56262 732.09089,135.15627 733.0625,135.15625 C 733.67079,135.15626 734.20423,135.33975 734.65625,135.6875 C 735.10824,136.03528 735.41631,136.51058 735.59375,137.09375 C 735.77116,137.67695 735.84375,138.54169 735.84375,139.71875 L 735.84375,150.09375 L 738.125,150.09375 L 738.125,139.625 C 738.12499,138.28743 738.08447,137.34755 738,136.8125 C 737.8648,135.98856 737.65046,135.2555 737.3125,134.65625 C 736.97455,134.05703 736.46133,133.58794 735.78125,133.21875 C 735.10112,132.8496 734.34232,132.65627 733.53125,132.65625 z M 747.09375,132.65625 C 745.93628,132.65627 744.85927,132.99732 743.875,133.6875 C 742.89073,134.37771 742.13779,135.43214 741.65625,136.8125 C 741.17467,138.19289 740.93751,139.7845 740.9375,141.625 C 740.9375,144.47138 741.50554,146.66266 742.625,148.1875 C 743.74445,149.71234 745.22067,150.46874 747.0625,150.46875 C 748.53257,150.46875 749.77166,149.92002 750.78125,148.8125 C 751.79086,147.70499 752.41125,146.17698 752.65625,144.21875 L 750.4375,143.84375 C 750.27697,145.28834 749.88109,146.36696 749.28125,147.0625 C 748.68138,147.75804 747.92683,148.09375 747.03125,148.09375 C 745.91602,148.09375 745.03652,147.56922 744.34375,146.53125 C 743.65095,145.49329 743.28122,143.85245 743.28125,141.5625 C 743.28124,139.30468 743.65684,137.63707 744.375,136.59375 C 745.09314,135.55045 746.00722,135.03126 747.15625,135.03125 C 747.91662,135.03126 748.58848,135.32843 749.125,135.90625 C 749.66148,136.4841 750.0388,137.35504 750.25,138.5 L 752.46875,138.0625 C 752.20683,136.33971 751.5856,134.99882 750.65625,134.0625 C 749.72689,133.12621 748.55538,132.65627 747.09375,132.65625 z M 760.15625,132.65625 C 758.29753,132.65627 756.79095,133.44757 755.625,135.03125 C 754.45908,136.61496 753.875,138.85098 753.875,141.71875 C 753.875,144.49022 754.44051,146.65196 755.59375,148.1875 C 756.74699,149.72304 758.3127,150.46874 760.28125,150.46875 C 761.84425,150.46875 763.1196,149.99431 764.125,149.03125 C 765.13038,148.06819 765.81577,146.71297 766.1875,144.96875 L 763.84375,144.59375 C 763.49735,145.81363 763.02889,146.72483 762.4375,147.28125 C 761.84608,147.83769 761.11764,148.09375 760.28125,148.09375 C 759.15757,148.09375 758.22066,147.58891 757.46875,146.59375 C 756.71681,145.59859 756.30323,144.18511 756.21875,142.3125 L 766.25,142.3125 C 766.25844,141.97009 766.28125,141.70246 766.28125,141.53125 C 766.28124,138.71699 765.70309,136.55161 764.5625,135 C 763.42192,133.44842 761.95579,132.65627 760.15625,132.65625 z M 773.5,132.65625 C 772.79875,132.65627 772.14377,132.76996 771.53125,133 C 770.91871,133.23008 770.41732,133.51205 770.0625,133.84375 C 769.58938,134.27179 769.21208,134.82138 768.9375,135.46875 C 768.66292,136.11615 768.53124,136.80277 768.53125,137.5625 C 768.53125,138.39716 768.69755,139.15358 769.03125,139.84375 C 769.36497,140.53395 769.85368,141.07818 770.5,141.46875 C 771.14631,141.85933 772.32714,142.33997 774,142.875 C 775.24194,143.27093 775.99992,143.58695 776.3125,143.84375 C 776.76028,144.21828 777.00001,144.72227 777,145.375 C 777,146.10265 776.72566,146.74088 776.21875,147.28125 C 775.71182,147.82163 774.9539,148.09375 773.90625,148.09375 C 772.86705,148.09375 772.04749,147.79744 771.46875,147.1875 C 770.89002,146.57757 770.53297,145.70747 770.40625,144.5625 L 768.15625,145 C 768.40971,146.80841 768.98958,148.17349 769.90625,149.09375 C 770.82293,150.01401 772.15737,150.46874 773.90625,150.46875 C 774.96232,150.46875 775.91358,150.24673 776.75,149.78125 C 777.5864,149.31577 778.21266,148.6632 778.65625,147.8125 C 779.0998,146.9618 779.34377,146.05681 779.34375,145.09375 C 779.34374,144.1093 779.14455,143.28844 778.78125,142.625 C 778.41794,141.96157 777.91914,141.44153 777.28125,141.09375 C 776.64337,140.74599 775.51994,140.29574 773.90625,139.75 C 772.79102,139.36479 772.13436,139.10701 771.90625,139 C 771.50916,138.7967 771.21713,138.56033 771.03125,138.25 C 770.84538,137.95039 770.75002,137.59329 770.75,137.21875 C 770.75,136.63023 770.95846,136.12624 771.40625,135.6875 C 771.85403,135.24879 772.60863,135.03126 773.65625,135.03125 C 774.54336,135.03126 775.23293,135.28903 775.71875,135.78125 C 776.20454,136.27349 776.49233,136.93506 776.59375,137.8125 L 778.8125,137.4375 C 778.66886,136.33535 778.41142,135.4706 778.03125,134.8125 C 777.65105,134.15443 777.07962,133.63524 776.28125,133.25 C 775.48284,132.86479 774.55608,132.65627 773.5,132.65625 z M 465.9375,133.03125 L 465.9375,150.09375 L 468.21875,150.09375 L 468.21875,133.03125 L 465.9375,133.03125 z M 470.34375,133.03125 L 475.4375,150.09375 L 477.5625,150.09375 L 482.6875,133.03125 L 480.3125,133.03125 L 477.34375,143.4375 C 476.98045,144.70018 476.70277,145.78866 476.5,146.6875 C 476.23809,145.49973 475.9376,144.35216 475.625,143.25 L 472.75,133.03125 L 470.34375,133.03125 z M 520.78125,133.03125 L 520.78125,150.09375 L 523.0625,150.09375 L 523.0625,133.03125 L 520.78125,133.03125 z M 532.46875,133.03125 L 537.5625,150.125 C 537.46956,150.43532 537.41727,150.68324 537.375,150.84375 C 537.05394,151.98872 536.8311,152.67984 536.6875,152.96875 C 536.49318,153.35397 536.24166,153.66098 535.9375,153.875 C 535.63334,154.08901 535.22568,154.1875 534.71875,154.1875 C 534.34701,154.1875 533.90471,154.10871 533.40625,153.9375 L 533.65625,156.65625 C 534.19696,156.89166 534.68567,157 535.125,157 C 535.85158,156.99999 536.47618,156.78782 537,156.34375 C 537.52381,155.89967 538.0007,155.20235 538.40625,154.25 C 538.71039,153.54375 539.13833,152.24761 539.6875,150.375 L 544.78125,133.03125 L 542.5,133.03125 L 539.625,142.96875 C 539.2617,144.23143 538.94941,145.54812 538.6875,146.875 C 538.40024,145.49462 538.08205,144.15824 537.71875,142.90625 L 534.9375,133.03125 L 532.46875,133.03125 z M 634.8125,133.03125 L 634.8125,150.09375 L 637.09375,150.09375 L 637.09375,133.03125 L 634.8125,133.03125 z M 707,133.03125 L 707,150.09375 L 709.28125,150.09375 L 709.28125,133.03125 L 707,133.03125 z M 605.53125,134.9375 C 605.6492,134.91952 605.75355,134.9375 605.875,134.9375 C 606.85505,134.93752 607.7008,135.4505 608.40625,136.53125 C 609.1117,137.61203 609.46874,139.26528 609.46875,141.4375 C 609.46874,143.71674 609.09736,145.38263 608.375,146.46875 C 607.65264,147.55487 606.79509,148.09375 605.78125,148.09375 C 604.78429,148.09375 603.91997,147.57992 603.21875,146.53125 C 602.5175,145.48259 602.1875,143.84989 602.1875,141.65625 C 602.1875,139.46263 602.56476,137.80658 603.3125,136.65625 C 603.96674,135.64973 604.7056,135.06333 605.53125,134.9375 z M 619.96875,134.9375 C 620.0867,134.91952 620.19105,134.9375 620.3125,134.9375 C 621.29254,134.93752 622.13827,135.4505 622.84375,136.53125 C 623.5492,137.61203 623.90626,139.26528 623.90625,141.4375 C 623.90624,143.71674 623.56608,145.38263 622.84375,146.46875 C 622.12138,147.55487 621.23256,148.09375 620.21875,148.09375 C 619.22181,148.09375 618.38874,147.57992 617.6875,146.53125 C 616.98625,145.48259 616.62502,143.84989 616.625,141.65625 C 616.625,139.46263 617.0023,137.80658 617.75,136.65625 C 618.40424,135.64973 619.14308,135.06333 619.96875,134.9375 z M 490.25,135.03125 C 491.40746,135.03126 492.33589,135.6059 493.0625,136.71875 C 493.53561,137.43571 493.8361,138.50363 493.9375,139.9375 L 486.40625,139.9375 C 486.48228,138.45012 486.87983,137.26316 487.59375,136.375 C 488.30766,135.48686 489.20234,135.03126 490.25,135.03125 z M 646.125,135.03125 C 647.28246,135.03126 648.21089,135.6059 648.9375,136.71875 C 649.41061,137.43571 649.71111,138.50363 649.8125,139.9375 L 642.28125,139.9375 C 642.3573,138.45012 642.75486,137.26316 643.46875,136.375 C 644.18266,135.48686 645.07738,135.03126 646.125,135.03125 z M 718.3125,135.03125 C 719.46996,135.03126 720.39838,135.6059 721.125,136.71875 C 721.59811,137.43571 721.8986,138.50363 722,139.9375 L 714.46875,139.9375 C 714.5448,138.45012 714.94236,137.26316 715.65625,136.375 C 716.37016,135.48686 717.26487,135.03126 718.3125,135.03125 z M 760.1875,135.03125 C 761.34496,135.03126 762.27344,135.6059 763,136.71875 C 763.47312,137.43571 763.77358,138.50363 763.875,139.9375 L 756.34375,139.9375 C 756.41978,138.45012 756.81734,137.26316 757.53125,136.375 C 758.24515,135.48686 759.13985,135.03126 760.1875,135.03125 z M 558.96875,135.0625 C 559.10525,135.04561 559.26368,135.0625 559.40625,135.0625 C 560.52992,135.06251 561.46259,135.6014 562.21875,136.6875 C 562.9749,137.77363 563.34371,139.36073 563.34375,141.46875 C 563.34374,143.70519 562.97066,145.37728 562.21875,146.46875 C 561.4668,147.56022 560.53839,148.09375 559.40625,148.09375 C 558.26567,148.09375 557.31444,147.55486 556.5625,146.46875 C 555.81056,145.38264 555.43748,143.74544 555.4375,141.5625 C 555.4375,139.37958 555.81058,137.76828 556.5625,136.6875 C 557.22044,135.74184 558.01327,135.18072 558.96875,135.0625 z M 659.71875,135.0625 C 659.84027,135.04611 659.96702,135.0625 660.09375,135.0625 C 661.13292,135.06251 662.00903,135.59605 662.71875,136.6875 C 663.42843,137.77898 663.78124,139.47977 663.78125,141.8125 C 663.78125,143.93123 663.44701,145.5299 662.75,146.5625 C 662.05297,147.59511 661.18446,148.09375 660.1875,148.09375 C 659.199,148.09375 658.35161,147.54951 657.625,146.46875 C 656.89841,145.38799 656.53124,143.77669 656.53125,141.59375 C 656.53124,139.33593 656.88235,137.67368 657.5625,136.625 C 658.15759,135.70743 658.86814,135.1772 659.71875,135.0625 z"
       transform="matrix(0.3390571,0,0,-0.3285435,-5.9394222,51.71132)"
       id="text12"
       style="font-size:20px;fill:#000000;stroke:none;font-family:'Helvetica,sans-serif'" /></g></svg>
